<svg width="36" height="36" viewBox="0 0 36 36" fill="none" xmlns="http://www.w3.org/2000/svg">
<path d="M29.0471 20.7956H10.5789C10.3208 20.7955 10.0716 20.7008 9.8787 20.5294C9.68575 20.3579 9.56237 20.1217 9.53191 19.8654L8.1559 8.27297C8.1559 8.26313 8.1559 8.25328 8.1559 8.24274L7.83809 5.57086H4.86035C4.58063 5.57086 4.31237 5.45974 4.11457 5.26195C3.91678 5.06416 3.80566 4.7959 3.80566 4.51617C3.80566 4.23645 3.91678 3.96819 4.11457 3.7704C4.31237 3.57261 4.58063 3.46149 4.86035 3.46149H8.76973C9.02795 3.4614 9.27724 3.55606 9.47033 3.72751C9.66343 3.89896 9.78691 4.1353 9.81738 4.39172L10.1366 7.07977H31.0194C31.1729 7.07975 31.3245 7.11322 31.4636 7.17784C31.6028 7.24246 31.7262 7.33666 31.8252 7.45389C31.9243 7.57112 31.9965 7.70854 32.0369 7.85656C32.0774 8.00459 32.085 8.15966 32.0593 8.31094L30.0906 19.9195C30.0483 20.1654 29.9203 20.3883 29.7293 20.5487C29.5383 20.7091 29.2966 20.7966 29.0471 20.7956ZM11.5161 18.6863H28.1563L29.7678 9.18704H10.3869L11.5161 18.6863Z" fill="#842727"/>
<path d="M28.8736 24.5651H11.0276C10.7693 24.5651 10.52 24.4705 10.327 24.299C10.1339 24.1276 10.0104 23.8913 9.9799 23.6348L8.81272 13.8129C8.7956 13.675 8.80591 13.535 8.84305 13.4011C8.88018 13.2672 8.94342 13.142 9.02911 13.0326C9.11481 12.9232 9.22128 12.8318 9.34241 12.7637C9.46353 12.6956 9.59693 12.6521 9.73492 12.6357C9.87291 12.6193 10.0128 12.6303 10.1465 12.6681C10.2802 12.706 10.4051 12.7698 10.5141 12.8561C10.623 12.9424 10.7139 13.0493 10.7813 13.1708C10.8488 13.2923 10.8916 13.4259 10.9073 13.564L11.962 22.4557H28.8736C29.1533 22.4557 29.4216 22.5668 29.6194 22.7646C29.8171 22.9624 29.9283 23.2307 29.9283 23.5104C29.9283 23.7901 29.8171 24.0584 29.6194 24.2562C29.4216 24.4539 29.1533 24.5651 28.8736 24.5651Z" fill="#842727"/>
<path d="M13.4585 31.5113C12.8397 31.5114 12.2348 31.328 11.7203 30.9844C11.2058 30.6407 10.8047 30.1521 10.5678 29.5805C10.331 29.0089 10.269 28.3798 10.3897 27.7729C10.5103 27.1661 10.8083 26.6086 11.2458 26.1711C11.6834 25.7336 12.2408 25.4356 12.8477 25.3149C13.4546 25.1942 14.0836 25.2563 14.6552 25.4931C15.2269 25.73 15.7154 26.131 16.0591 26.6456C16.4028 27.1601 16.5861 27.765 16.586 28.3838C16.5851 29.2129 16.2553 30.0079 15.6689 30.5942C15.0826 31.1805 14.2877 31.5103 13.4585 31.5113ZM13.4585 27.3628C13.257 27.3627 13.0599 27.4223 12.8923 27.5342C12.7246 27.646 12.5939 27.8051 12.5167 27.9913C12.4395 28.1774 12.4192 28.3823 12.4585 28.58C12.4977 28.7777 12.5947 28.9593 12.7371 29.1018C12.8796 29.2444 13.0611 29.3415 13.2588 29.3808C13.4564 29.4202 13.6613 29.4001 13.8475 29.323C14.0337 29.2459 14.1929 29.1153 14.3049 28.9478C14.4169 28.7802 14.4766 28.5832 14.4766 28.3816C14.4759 28.112 14.3683 27.8536 14.1775 27.663C13.9867 27.4725 13.7282 27.3653 13.4585 27.3649V27.3628Z" fill="#842727"/>
<path d="M26.0244 31.5113C25.4057 31.5114 24.8008 31.328 24.2862 30.9844C23.7717 30.6407 23.3706 30.1521 23.1338 29.5805C22.8969 29.0089 22.8349 28.3798 22.9556 27.7729C23.0763 27.1661 23.3742 26.6086 23.8117 26.1711C24.2493 25.7336 24.8067 25.4356 25.4136 25.3149C26.0205 25.1942 26.6495 25.2563 27.2211 25.4931C27.7928 25.73 28.2813 26.131 28.625 26.6456C28.9687 27.1601 29.1521 27.765 29.1519 28.3838C29.151 29.2129 28.8212 30.0079 28.2349 30.5942C27.6485 31.1805 26.8536 31.5103 26.0244 31.5113ZM26.0244 27.3628C25.8229 27.3627 25.6258 27.4223 25.4582 27.5342C25.2906 27.646 25.1599 27.8051 25.0826 27.9913C25.0054 28.1774 24.9851 28.3823 25.0244 28.58C25.0636 28.7777 25.1606 28.9593 25.303 29.1018C25.4455 29.2444 25.627 29.3415 25.8247 29.3808C26.0223 29.4202 26.2272 29.4001 26.4134 29.323C26.5996 29.2459 26.7588 29.1153 26.8708 28.9478C26.9828 28.7802 27.0425 28.5832 27.0425 28.3816C27.0418 28.112 26.9342 27.8536 26.7434 27.663C26.5526 27.4725 26.2941 27.3653 26.0244 27.3649V27.3628Z" fill="#842727"/>
</svg>
