<svg width="44" height="44" viewBox="0 0 44 44" fill="none" xmlns="http://www.w3.org/2000/svg">
<path d="M37.1169 14.0835H31.907C31.6943 14.0835 31.4857 14.1412 31.3032 14.2503C31.1207 14.3595 30.9712 14.5161 30.8707 14.7035C30.8707 14.7035 28.7927 18.5303 28.1253 19.8192C26.3297 23.2866 25.1669 22.1981 25.1669 20.5888V15.0401C25.1669 14.5764 24.9827 14.1318 24.6549 13.8039C24.327 13.476 23.8823 13.2918 23.4187 13.2918H19.5015C18.968 13.2522 18.4333 13.3495 17.9481 13.5747C17.4628 13.7999 17.0432 14.1453 16.7291 14.5783C16.7291 14.5783 18.7181 14.2567 18.7181 16.9368C18.7181 17.6014 18.7524 19.5132 18.7836 21.1168C18.7895 21.3531 18.7227 21.5855 18.5923 21.7827C18.4619 21.9798 18.2741 22.1322 18.0544 22.2193C17.8346 22.3063 17.5934 22.3239 17.3634 22.2695C17.1334 22.2151 16.9255 22.0915 16.768 21.9153C15.1646 19.6853 13.8365 17.2698 12.8125 14.7213C12.7246 14.5306 12.5838 14.3692 12.4069 14.2562C12.2299 14.1431 12.0243 14.0832 11.8144 14.0835C10.6845 14.0835 8.42352 14.0835 7.0808 14.0835C6.9506 14.0826 6.82213 14.1134 6.70642 14.1731C6.59072 14.2328 6.49124 14.3197 6.41654 14.4264C6.34184 14.533 6.29414 14.6562 6.27755 14.7853C6.26096 14.9145 6.27597 15.0457 6.32129 15.1678C7.75863 19.1104 13.9502 31.5002 21.0173 31.5002H23.9918C24.3035 31.5002 24.6024 31.3764 24.8227 31.156C25.0431 30.9356 25.1669 30.6367 25.1669 30.325V28.5289C25.1669 28.3036 25.2328 28.0832 25.3566 27.8949C25.4803 27.7066 25.6564 27.5586 25.8632 27.4691C26.07 27.3797 26.2984 27.3527 26.5204 27.3914C26.7424 27.4302 26.9481 27.5331 27.1123 27.6874L30.6726 31.0325C30.9924 31.3329 31.4146 31.5002 31.8533 31.5002H36.5286C38.7835 31.5002 38.7835 29.9355 37.5541 28.7247C36.6889 27.8726 33.5668 24.5817 33.5668 24.5817C33.2994 24.3047 33.1399 23.9412 33.1172 23.5569C33.0944 23.1726 33.2099 22.7929 33.4427 22.4863C34.4519 21.1582 36.1025 18.9843 36.8025 18.053C37.7594 16.7801 39.4911 14.0835 37.1169 14.0835Z" fill="white"/>
<rect x="1.5" y="1.5" width="41" height="41" rx="11.5" stroke="white" stroke-width="3"/>
</svg>
