<svg width="43" height="43" viewBox="0 0 43 43" fill="none" xmlns="http://www.w3.org/2000/svg">
<path d="M33.901 35.6212H10.3628V29.7388H12.7106V33.2648H31.5446V9.72661H12.7106V14.4308H10.3628V7.37021H33.901V35.6212Z" fill="#842727"/>
<path d="M12.7192 19.1436H9.18457V21.5H12.7192V19.1436Z" fill="#842727"/>
<path d="M12.7192 25.026H9.18457V27.3824H12.7192V25.026Z" fill="#842727"/>
<path d="M12.7192 13.2526H9.18457V15.609H12.7192V13.2526Z" fill="#842727"/>
<path d="M12.7192 22.6696H10.3628V26.2042H12.7192V22.6696Z" fill="#842727"/>
<path d="M12.7192 16.7872H10.3628V20.3218H12.7192V16.7872Z" fill="#842727"/>
<path d="M22.1273 23.8478C19.5301 23.8478 17.4146 21.7322 17.4146 19.135C17.4146 16.5378 19.5301 14.4222 22.1273 14.4222C24.7245 14.4222 26.8401 16.5378 26.8401 19.135C26.8401 21.7322 24.7245 23.8478 22.1273 23.8478ZM22.1273 16.7872C20.8287 16.7872 19.7709 17.845 19.7709 19.1436C19.7709 20.4422 20.8287 21.5 22.1273 21.5C23.4259 21.5 24.4837 20.4422 24.4837 19.1436C24.4837 17.845 23.4259 16.7872 22.1273 16.7872Z" fill="#842727"/>
<path d="M28.0183 27.3824H25.6619C25.6619 25.4388 24.0795 23.8478 22.1273 23.8478C20.1751 23.8478 18.5927 25.4302 18.5927 27.3824H16.2363C16.2363 24.1402 18.8765 21.5 22.1187 21.5C25.3609 21.5 28.0183 24.1402 28.0183 27.3824Z" fill="#842727"/>
</svg>
