<svg width="50" height="50" viewBox="0 0 50 50" fill="none" xmlns="http://www.w3.org/2000/svg">
<path d="M24.8676 14.7268C18.6947 14.7268 13.5801 19.7533 13.5801 26.0143C13.5801 32.2753 18.6065 37.3018 24.8676 37.3018C31.1286 37.3018 36.155 32.1871 36.155 26.0143C36.155 19.8414 31.0404 14.7268 24.8676 14.7268ZM24.8676 33.2453C20.8993 33.2453 17.6365 29.9825 17.6365 26.0143C17.6365 22.046 20.8993 18.7832 24.8676 18.7832C28.8358 18.7832 32.0986 22.046 32.0986 26.0143C32.0986 29.9825 28.8358 33.2453 24.8676 33.2453Z" fill="white"/>
<path d="M36.5959 17.0194C38.0083 17.0194 39.1532 15.8745 39.1532 14.4621C39.1532 13.0497 38.0083 11.9048 36.5959 11.9048C35.1835 11.9048 34.0386 13.0497 34.0386 14.4621C34.0386 15.8745 35.1835 17.0194 36.5959 17.0194Z" fill="white"/>
<path d="M43.2097 7.84843C40.9169 5.46748 37.6541 4.23291 33.9504 4.23291H15.7846C8.11269 4.23291 2.99805 9.34755 2.99805 17.0195V35.0971C2.99805 38.889 4.23261 42.1518 6.70175 44.5327C9.0827 46.8255 12.2573 47.9719 15.8728 47.9719H33.8622C37.6541 47.9719 40.8287 46.7373 43.1215 44.5327C45.5025 42.24 46.737 38.9772 46.737 35.1853V17.0195C46.737 13.3158 45.5025 10.1412 43.2097 7.84843ZM42.857 35.1853C42.857 37.919 41.8869 40.1236 40.2996 41.6227C38.7123 43.1218 36.5077 43.9155 33.8622 43.9155H15.8728C13.2273 43.9155 11.0227 43.1218 9.43544 41.6227C7.84813 40.0354 7.05448 37.8308 7.05448 35.0971V17.0195C7.05448 14.374 7.84813 12.1694 9.43544 10.5821C10.9346 9.083 13.2273 8.28935 15.8728 8.28935H34.0386C36.6841 8.28935 38.8887 9.083 40.476 10.6703C41.9751 12.2576 42.857 14.4622 42.857 17.0195V35.1853Z" fill="white"/>
</svg>
