<svg width="44" height="44" viewBox="0 0 44 44" fill="none" xmlns="http://www.w3.org/2000/svg">
<path d="M29 22C28 22 26 24 22 24C18 24 16 22 15 22C13.896 22 13 22.896 13 24C13 25 13.568 25.481 14 25.734C15.185 26.427 19 28 19 28L14.75 33.438C14.75 33.438 14 34.373 14 35C14 36.104 14.896 37 16 37C17.021 37 17.484 36.344 17.484 36.344C17.484 36.344 21.993 30.993 22 31C22.007 30.993 26.516 36.344 26.516 36.344C26.516 36.344 26.979 37 28 37C29.104 37 30 36.104 30 35C30 34.373 29.25 33.438 29.25 33.438L25 28C25 28 28.815 26.427 30 25.734C30.432 25.481 31 25 31 24C31 22.896 30.104 22 29 22Z" fill="white"/>
<path d="M22 7C18.134 7 15 10.134 15 14C15 17.866 18.134 21 22 21C25.865 21 29 17.866 29 14C29 10.134 25.865 7 22 7ZM22 17.5C20.067 17.5 18.5 15.934 18.5 14C18.5 12.067 20.067 10.5 22 10.5C23.932 10.5 25.5 12.067 25.5 14C25.5 15.934 23.932 17.5 22 17.5Z" fill="white"/>
<rect x="1.5" y="1.5" width="41" height="41" rx="11.5" stroke="white" stroke-width="3"/>
</svg>
