<svg width="68" height="68" viewBox="0 0 68 68" fill="none" xmlns="http://www.w3.org/2000/svg">
<g clip-path="url(#clip0_6048_0)">
<path d="M19.0288 30.88C20.1473 31.9964 24.4553 36.543 24.4553 36.543L26.8438 34.0798L23.1003 30.2118L30.2864 22.5795C30.2864 22.5795 27.0429 19.417 28.4623 20.6766C29.8195 15.6362 28.5826 10.0125 24.7541 6.05108C20.9587 2.12076 15.5654 0.832076 10.72 2.18504L18.9313 10.6661L16.7711 18.9874L8.73195 21.2079L0.524806 12.7246C-0.784592 17.7341 0.460459 23.3057 4.26421 27.2381C8.25476 31.3635 14.0008 32.5754 19.0288 30.88ZM46.406 39.1286L36.5034 48.9108L52.8349 65.8314C54.1671 67.2135 55.9226 67.9025 57.674 67.9025C59.4172 67.9025 61.1686 67.2136 62.5091 65.8314C65.1819 63.0673 65.1819 58.5934 62.5091 55.8293L46.406 39.1286ZM67.9791 10.7471L57.5785 -6.10352e-05L26.9206 31.6955L30.6641 35.5635L12.3137 54.5302L8.11989 56.7714L2.19532 66.4374L3.70401 68.0021L13.0566 61.8763L15.2251 57.5392L33.5755 38.5766L37.3211 42.4446L67.9791 10.7471Z" fill="#FF5C5C"/>
</g>
<defs>
<clipPath id="clip0_6048_0">
<rect width="68" height="68" fill="white"/>
</clipPath>
</defs>
</svg>
