<svg width="29" height="29" viewBox="0 0 29 29" fill="none" xmlns="http://www.w3.org/2000/svg">
<path fill-rule="evenodd" clip-rule="evenodd" d="M20.1389 17.7222H18.85L18.3667 17.2389C19.9778 15.4667 20.9444 13.05 20.9444 10.4722C20.9444 4.67222 16.2722 0 10.4722 0C4.67222 0 0 4.67222 0 10.4722C0 16.2722 4.67222 20.9444 10.4722 20.9444C13.05 20.9444 15.4667 19.9778 17.2389 18.3667L17.7222 18.85V20.1389L25.7778 28.1944L28.1944 25.7778L20.1389 17.7222ZM10.4722 17.7222C6.44444 17.7222 3.22222 14.5 3.22222 10.4722C3.22222 6.44444 6.44444 3.22222 10.4722 3.22222C14.5 3.22222 17.7222 6.44444 17.7222 10.4722C17.7222 14.5 14.5 17.7222 10.4722 17.7222Z" fill="#842727"/>
</svg>
