<svg width="45" height="45" viewBox="0 0 45 45" fill="none" xmlns="http://www.w3.org/2000/svg">
<path d="M37.9688 32.625V12.375C39.6563 11.8125 40.7812 10.2656 40.7812 8.4375C40.7812 6.04687 38.9531 4.21875 36.5625 4.21875C34.7344 4.21875 33.1875 5.34375 32.625 7.03125H12.375C11.8125 5.34375 10.2656 4.21875 8.4375 4.21875C6.04687 4.21875 4.21875 6.04687 4.21875 8.4375C4.21875 10.2656 5.34375 11.8125 7.03125 12.375V32.625C5.34375 33.1875 4.21875 34.7344 4.21875 36.5625C4.21875 38.9531 6.04687 40.7812 8.4375 40.7812C10.2656 40.7812 11.8125 39.6563 12.375 37.9688H32.625C33.1875 39.6563 34.7344 40.7812 36.5625 40.7812C38.9531 40.7812 40.7812 38.9531 40.7812 36.5625C40.7812 34.7344 39.6563 33.1875 37.9688 32.625Z" stroke="#842727" stroke-width="2" stroke-miterlimit="10" stroke-linejoin="round"/>
<path d="M32.3438 12.6562H12.6562V32.3438H32.3438V12.6562Z" stroke="#842727" stroke-width="2" stroke-miterlimit="10" stroke-linejoin="round"/>
<path d="M18.2812 19.6875C19.0579 19.6875 19.6875 19.0579 19.6875 18.2812C19.6875 17.5046 19.0579 16.875 18.2812 16.875C17.5046 16.875 16.875 17.5046 16.875 18.2812C16.875 19.0579 17.5046 19.6875 18.2812 19.6875Z" stroke="#842727" stroke-width="2" stroke-miterlimit="10" stroke-linejoin="round"/>
<path d="M12.6562 28.125L22.5 22.5L28.125 26.7188L32.3438 23.9062" stroke="#842727" stroke-width="2" stroke-miterlimit="10" stroke-linejoin="round"/>
</svg>
