<svg width="103" height="103" viewBox="0 0 103 103" fill="none" xmlns="http://www.w3.org/2000/svg">
<path d="M68.5762 21.7691V20.6433C68.5762 19.003 67.2454 17.6722 65.6051 17.6722H6.92867C5.28835 17.6722 3.95752 19.003 3.95752 20.6433V74.4336C3.95752 76.0739 5.28835 77.4048 6.92867 77.4048H19.1881C20.4908 81.963 24.6473 85.3278 29.6185 85.3278C34.5898 85.3278 38.7462 81.963 40.049 77.4048H65.6051H70.5836C71.8864 81.963 76.0428 85.3278 81.0141 85.3278C85.9853 85.3278 90.1418 81.963 91.4445 77.4048H95.3824C95.5045 77.4048 95.6085 77.3494 95.7267 77.3351C95.8449 77.3494 95.9489 77.4048 96.071 77.4048C97.7113 77.4048 99.0422 76.0739 99.0422 74.4336V51.6954C99.0422 36.0216 85.6251 23.1275 68.5762 21.7691ZM92.9855 49.7146H81.8265C78.9791 48.9351 78.4027 43.8361 78.4027 35.8956V30.3656C86.5004 34.1197 92.2014 41.3116 92.9855 49.7146ZM74.4412 28.8774V35.8956C74.4412 44.5073 74.9557 52.3434 81.192 53.6355C81.3236 53.6626 81.459 53.6761 81.5944 53.6761H93.0999V71.4624H91.4445C90.1418 66.9042 85.9853 63.5394 81.0141 63.5394C76.0428 63.5394 71.8864 66.9042 70.5836 71.4624H65.6051H40.049C39.6082 69.9203 38.8466 68.5278 37.8245 67.3462H65.6051C66.4028 67.3462 67.0798 66.8696 67.3939 66.1909C68.0953 65.6471 68.5762 64.8354 68.5762 63.8798V27.7228C70.6083 27.9153 72.5656 28.3166 74.4412 28.8774ZM62.6339 63.3846H9.89983V23.6145H62.6339V63.3846ZM9.89983 67.3462H21.4126C20.3905 68.5278 19.6289 69.9203 19.1881 71.4624H9.89983V67.3462ZM29.6185 79.3855C26.8872 79.3855 24.6666 77.1649 24.6666 74.4336C24.6666 71.7023 26.8872 69.4817 29.6185 69.4817C32.3464 69.4817 34.5632 71.6975 34.5685 74.4239C34.5685 74.4273 34.5666 74.4302 34.5666 74.4336C34.5666 74.437 34.5685 74.4399 34.5685 74.4433C34.5632 77.1697 32.3464 79.3855 29.6185 79.3855ZM81.0141 79.3855C78.2828 79.3855 76.0621 77.1649 76.0621 74.4336C76.0621 71.7023 78.2828 69.4817 81.0141 69.4817C83.7454 69.4817 85.966 71.7023 85.966 74.4336C85.966 77.1649 83.7454 79.3855 81.0141 79.3855Z" fill="#FF5C5C"/>
</svg>
